HIERARCHY
ROOT Hips
{
    OFFSET   0.000000   0.000000   0.000000
    CHANNELS 6 Xposition Yposition Zposition Zrotation Xrotation Yrotation
    JOINT Chest
    {
        OFFSET   0.000000   8.007230   0.000000
        CHANNELS 3 Zrotation Xrotation Yrotation
        JOINT Chest2
        {
            OFFSET   0.000000  22.077100   0.000000
            CHANNELS 3 Zrotation Xrotation Yrotation
            JOINT Neck
            {
                OFFSET   0.000000  23.254800  -0.000021
                CHANNELS 3 Zrotation Xrotation Yrotation
                JOINT Head
                {
                    OFFSET   0.000000  14.370000   1.956610
                    CHANNELS 3 Zrotation Xrotation Yrotation
                    End Site
                    {
                        OFFSET   0.000000  19.566000   0.000000
                    }
                }
            }
            JOINT LeftCollar
            {
                OFFSET   3.911900  19.017000  -0.467063
                CHANNELS 3 Zrotation Xrotation Yrotation
                JOINT LeftShoulder
                {
                    OFFSET  10.383700   0.000000   0.000000
                    CHANNELS 3 Zrotation Xrotation Yrotation
                    JOINT LeftElbow
                    {
                        OFFSET  26.662100   0.001529   0.000325
                        CHANNELS 3 Zrotation Xrotation Yrotation
                        JOINT LeftWrist
                        {
                            OFFSET  28.869000  -0.000011  -0.000096
                            CHANNELS 3 Zrotation Xrotation Yrotation
                            JOINT LeftFinger0
                            {
                                OFFSET   2.044650  -2.323460   3.252850
                                CHANNELS 3 Zrotation Xrotation Yrotation
                                JOINT LeftFinger01
                                {
                                    OFFSET   3.088130   0.000000   0.000000
                                    CHANNELS 3 Zrotation Xrotation Yrotation
                                    JOINT LeftFinger02
                                    {
                                        OFFSET   2.639460   0.000000   0.000000
                                        CHANNELS 3 Zrotation Xrotation Yrotation
                                        End Site
                                        {
                                            OFFSET   2.582190   0.000000   0.000000
                                        }
                                    }
                                }
                            }
                            JOINT LeftFinger1
                            {
                                OFFSET   8.364480   0.000000   3.252850
                                CHANNELS 3 Zrotation Xrotation Yrotation
                                JOINT LeftFinger11
                                {
                                    OFFSET   4.646930   0.000000   0.000000
                                    CHANNELS 3 Zrotation Xrotation Yrotation
                                    JOINT LeftFinger12
                                    {
                                        OFFSET   2.323460   0.000000   0.000000
                                        CHANNELS 3 Zrotation Xrotation Yrotation
                                        End Site
                                        {
                                            OFFSET   2.273050   0.000000   0.000000
                                        }
                                    }
                                }
                            }
                            JOINT LeftFinger2
                            {
                                OFFSET   8.364480   0.000016   1.078090
                                CHANNELS 3 Zrotation Xrotation Yrotation
                                JOINT LeftFinger21
                                {
                                    OFFSET   5.111620   0.000000   0.000000
                                    CHANNELS 3 Zrotation Xrotation Yrotation
                                    JOINT LeftFinger22
                                    {
                                        OFFSET   2.788160   0.000017   0.000000
                                        CHANNELS 3 Zrotation Xrotation Yrotation
                                        End Site
                                        {
                                            OFFSET   2.727660   0.000000   0.000000
                                        }
                                    }
                                }
                            }
                            JOINT LeftFinger3
                            {
                                OFFSET   7.899780   0.000015  -1.078090
                                CHANNELS 3 Zrotation Xrotation Yrotation
                                JOINT LeftFinger31
                                {
                                    OFFSET   4.646920   0.000000   0.000000
                                    CHANNELS 3 Zrotation Xrotation Yrotation
                                    JOINT LeftFinger32
                                    {
                                        OFFSET   2.323470   0.000000   0.000000
                                        CHANNELS 3 Zrotation Xrotation Yrotation
                                        End Site
                                        {
                                            OFFSET   2.273050   0.000000   0.000000
                                        }
                                    }
                                }
                            }
                            JOINT LeftFinger4
                            {
                                OFFSET   7.435090   0.000000  -3.252850
                                CHANNELS 3 Zrotation Xrotation Yrotation
                                JOINT LeftFinger41
                                {
                                    OFFSET   3.717550   0.000000   0.000000
                                    CHANNELS 3 Zrotation Xrotation Yrotation
                                    JOINT LeftFinger42
                                    {
                                        OFFSET   1.858760   0.000000   0.000000
                                        CHANNELS 3 Zrotation Xrotation Yrotation
                                        End Site
                                        {
                                            OFFSET   1.818440   0.000000   0.000000
                                        }
                                    }
                                }
                            }
                        }
                    }
                }
            }
            JOINT RightCollar
            {
                OFFSET  -3.911900  19.017000  -0.467062
                CHANNELS 3 Zrotation Xrotation Yrotation
                JOINT RightShoulder
                {
                    OFFSET -10.383700   0.000015   0.000000
                    CHANNELS 3 Zrotation Xrotation Yrotation
                    JOINT RightElbow
                    {
                        OFFSET -26.662100   0.001341   0.000385
                        CHANNELS 3 Zrotation Xrotation Yrotation
                        JOINT RightWrist
                        {
                            OFFSET -28.869000   0.000025  -0.000080
                            CHANNELS 3 Zrotation Xrotation Yrotation
                            JOINT RightFinger0
                            {
                                OFFSET  -2.044650  -2.323490   3.252850
                                CHANNELS 3 Zrotation Xrotation Yrotation
                                JOINT RightFinger01
                                {
                                    OFFSET  -3.088130   0.000000   0.000000
                                    CHANNELS 3 Zrotation Xrotation Yrotation
                                    JOINT RightFinger02
                                    {
                                        OFFSET  -2.639460   0.000000   0.000000
                                        CHANNELS 3 Zrotation Xrotation Yrotation
                                        End Site
                                        {
                                            OFFSET  -2.582190   0.000000   0.000000
                                        }
                                    }
                                }
                            }
                            JOINT RightFinger1
                            {
                                OFFSET  -8.364480   0.000000   3.252850
                                CHANNELS 3 Zrotation Xrotation Yrotation
                                JOINT RightFinger11
                                {
                                    OFFSET  -4.646930   0.000000   0.000000
                                    CHANNELS 3 Zrotation Xrotation Yrotation
                                    JOINT RightFinger12
                                    {
                                        OFFSET  -2.323470   0.000000   0.000000
                                        CHANNELS 3 Zrotation Xrotation Yrotation
                                        End Site
                                        {
                                            OFFSET  -2.273050   0.000000   0.000000
                                        }
                                    }
                                }
                            }
                            JOINT RightFinger2
                            {
                                OFFSET  -8.364480   0.000000   1.078090
                                CHANNELS 3 Zrotation Xrotation Yrotation
                                JOINT RightFinger21
                                {
                                    OFFSET  -5.111610   0.000000   0.000000
                                    CHANNELS 3 Zrotation Xrotation Yrotation
                                    JOINT RightFinger22
                                    {
                                        OFFSET  -2.788160   0.000000   0.000000
                                        CHANNELS 3 Zrotation Xrotation Yrotation
                                        End Site
                                        {
                                            OFFSET  -2.727660   0.000000   0.000000
                                        }
                                    }
                                }
                            }
                            JOINT RightFinger3
                            {
                                OFFSET  -7.899780   0.000000  -1.078090
                                CHANNELS 3 Zrotation Xrotation Yrotation
                                JOINT RightFinger31
                                {
                                    OFFSET  -4.646920   0.000000   0.000000
                                    CHANNELS 3 Zrotation Xrotation Yrotation
                                    JOINT RightFinger32
                                    {
                                        OFFSET  -2.323470   0.000000   0.000000
                                        CHANNELS 3 Zrotation Xrotation Yrotation
                                        End Site
                                        {
                                            OFFSET  -2.273050   0.000000   0.000000
                                        }
                                    }
                                }
                            }
                            JOINT RightFinger4
                            {
                                OFFSET  -7.435090   0.000000  -3.252850
                                CHANNELS 3 Zrotation Xrotation Yrotation
                                JOINT RightFinger41
                                {
                                    OFFSET  -3.717550   0.000000   0.000000
                                    CHANNELS 3 Zrotation Xrotation Yrotation
                                    JOINT RightFinger42
                                    {
                                        OFFSET  -1.858770   0.000000   0.000000
                                        CHANNELS 3 Zrotation Xrotation Yrotation
                                        End Site
                                        {
                                            OFFSET  -1.818440   0.000000   0.000000
                                        }
                                    }
                                }
                            }
                        }
                    }
                }
            }
        }
    }
    JOINT LeftHip
    {
        OFFSET   9.783010   0.000000   0.000000
        CHANNELS 3 Zrotation Xrotation Yrotation
        JOINT LeftKnee
        {
            OFFSET   0.000070 -41.789100   0.000028
            CHANNELS 3 Zrotation Xrotation Yrotation
            JOINT LeftAnkle
            {
                OFFSET   0.000087 -41.133200  -0.000100
                CHANNELS 3 Zrotation Xrotation Yrotation
                JOINT LeftToe
                {
                    OFFSET   0.000000  -6.358960  14.674500
                    CHANNELS 3 Zrotation Xrotation Yrotation
                    End Site
                    {
                        OFFSET   0.000000   0.000000   3.913200
                    }
                }
            }
        }
    }
    JOINT RightHip
    {
        OFFSET  -9.783020   0.000000   0.000000
        CHANNELS 3 Zrotation Xrotation Yrotation
        JOINT RightKnee
        {
            OFFSET   0.000044 -41.789100  -0.000870
            CHANNELS 3 Zrotation Xrotation Yrotation
            JOINT RightAnkle
            {
                OFFSET  -0.000090 -41.133200  -0.000245
                CHANNELS 3 Zrotation Xrotation Yrotation
                JOINT RightToe
                {
                    OFFSET   0.000000  -6.358960  14.674500
                    CHANNELS 3 Zrotation Xrotation Yrotation
                    End Site
                    {
                        OFFSET   0.000000   0.000000   3.913200
                    }
                }
            }
        }
    }
}
MOTION
Frames: 4
Frame Time:   0.016667
  3.887320  89.009300   1.835970  -0.543086 -21.674000   0.937059  -4.217570  16.152800   3.340650 -10.096400  31.960300   8.496550  -1.102460  -0.722053  -0.013053  -1.831590  -1.462540   6.628190  -3.513180  -7.410670   1.815240 -52.131400  35.748500 -30.221100   9.352360  -8.035320 -77.375400  17.618700 -66.029600  34.844000  48.495900  33.178900 -68.205600  21.168400  -0.004517   0.004148  14.999100  -0.002236   0.001093 -24.925100   5.021550 -10.626100 -20.768800  -0.001726  -0.001801 -14.538200  -0.008065  -0.001251 -47.391900  -3.549600   3.251060 -54.406100  -0.002951   0.002990 -39.255500  -0.001701  -0.001245 -26.493400  -2.140740   4.308050 -26.573500  -0.003624   0.003088 -17.697900   0.006899  -0.007530 -28.231900  -6.280450  11.420900 -43.297700   0.017090   0.015432 -28.836300   0.005534   0.013939   9.389630  -5.084760   8.981280  42.380900  13.458800  50.601900 -11.175900 -20.925000  76.235300   7.255020 -37.788000  18.883800 -22.500100  14.173800  56.323000  58.252400  -0.012711   0.007034  32.136000  -0.006893   0.007767  89.381200   5.009940   0.067107  84.304700   0.008550   0.049493  63.228600   0.036046   0.005721  89.436500   0.038557   0.031328  92.173000   0.015798   0.054471  69.129800   0.049294   0.002243  88.995900  -4.999410  -0.091758 110.743000   0.009204  -0.003997  80.479500  -0.000055  -0.007458  89.089300  -9.996130  -0.154440 110.000000  -0.002369  -0.002218  80.000000  -0.002031   0.003891   2.752080  14.014400   8.680820  -2.019410  19.576700   8.589510  -4.247230 -13.529400   5.034720   0.000000   0.000000   0.000000  -5.046120  11.315600 -16.628900  -1.714680  25.631700  -5.544000  -4.997520  -8.939180   8.078360  -0.000000   0.000000  -0.000000
  3.893190  89.003500   1.792500   0.329097 -21.856600   3.529590  -4.091800  16.400600   3.000250  -9.748570  32.495200   7.776640  -0.785854  -1.140310  -0.015960  -1.291000  -2.310940   6.463710  -3.835660  -7.592470   1.794720 -51.310000  36.445400 -30.879600   8.575380  -8.926790 -77.346300  17.731600 -65.256600  34.457400  48.364700  32.854600 -67.592500  21.220300  -0.004483   0.004130  14.999100  -0.002220   0.001047 -24.765700   4.761090 -10.209200 -20.610100  -0.001702  -0.001628 -14.427100  -0.008148  -0.001267 -47.799400  -3.530350   3.204210 -54.388900  -0.002958   0.002987 -39.341600  -0.001731  -0.001267 -26.172800  -2.102680   4.280940 -26.251800  -0.003703   0.003137 -17.483700   0.006909  -0.007620 -27.513300  -6.479280  12.239700 -42.311600   0.015128   0.015611 -28.179500   0.003983   0.013964   9.715450  -4.981320   9.414640  41.860400  15.271800  50.076600 -12.134000 -23.010800  74.107200  12.487800 -39.406200  26.359800 -23.225500  15.342700  56.339400  58.322200  -0.013097   0.006789  32.182500  -0.007510   0.007809  88.996200   4.999230   0.087485  84.529600   0.001691  -0.007714  63.397200  -0.004455  -0.003990  89.083700   0.004316  -0.000320  92.486600   0.001222  -0.010703  69.365000  -0.006974  -0.004176  88.995900  -4.999390  -0.091819 110.000000   0.000000   0.000000  80.000000   0.000000   0.000000  88.984600  -9.996320  -0.176306 110.000000  -0.002308  -0.002240  80.000000  -0.001982   0.003854   2.631990  13.850800   9.338740  -1.021640  19.715100   6.240310  -4.507220 -13.323100   4.105020   0.000000   0.000000  -0.000000  -4.911940  11.590100 -15.366600  -0.908899  26.133800  -7.826040  -5.216860  -8.665590   6.554100  -0.000000   0.000000   0.000000
  3.953450  89.026900   1.761670   1.126330 -21.485200   5.946800  -3.914420  16.401000   2.712210  -9.274490  32.529900   7.106220  -0.789764  -1.531300  -0.020703  -1.259860  -3.103710   6.141590  -4.069380  -7.691220   1.978100 -50.515000  37.317600 -31.566300   8.354000  -9.686110 -77.276000  19.128000 -65.040200  35.741300  47.451600  32.340900 -67.198900  21.131000  -0.004434   0.004100  14.999100  -0.002208   0.000999 -24.414800   4.883820 -10.601600 -20.349100  -0.001662  -0.001465 -14.244400  -0.008224  -0.001275 -47.349400  -3.541220   3.260650 -54.404100  -0.002969   0.002994 -39.242700  -0.001752  -0.001283 -25.830500  -2.104270   4.330940 -25.910400  -0.003772   0.003185 -17.256300   0.006919  -0.007710 -26.782200  -6.369200  12.355300 -41.200800   0.003611   0.008237 -27.439700  -0.000994   0.006263  10.103000  -4.696110  10.046200  43.611800  15.149900  47.952700 -10.418200 -23.571000  76.990200  14.432500 -37.094500  29.013500 -23.125800  16.352300  56.481100  58.940900  -0.005631   0.000803  32.594600  -0.002586   0.007869  88.996200   4.999280   0.087266  84.316100   0.000290  -0.004786  63.237100  -0.003939  -0.003824  89.013500   0.000853  -0.000015  92.186900  -0.003612  -0.006814  69.140200  -0.004886  -0.004007  88.995900  -4.999370  -0.091885 110.000000  -0.000169   0.000534  80.000000   0.000000   0.000106  88.984600  -9.996490  -0.176295 110.000000  -0.002243  -0.002262  80.000000  -0.001945   0.003833   2.314760  13.279600   9.236540  -0.182848  19.468400   4.657320  -4.740850 -12.945000   3.439110  -0.000000   0.000000  -0.000000  -4.752310  11.383500 -14.795300  -0.469495  26.459100  -9.282910  -5.297980  -8.101950   5.088190   0.000000   0.000000   0.000000
  4.039270  89.065800   1.749710   1.785690 -20.901800   8.074240  -3.733770  16.379600   2.452060  -8.802190  32.528800   6.486880  -0.815695  -1.748730  -0.025184  -1.340580  -3.543370   5.804550  -4.169670  -7.789210   2.275370 -49.975400  38.124400 -32.056100   8.242890 -10.261400 -77.169000  20.507500 -64.998300  37.146400  46.990500  31.877400 -67.123000  20.979900  -0.004385   0.004068  14.999100  -0.002195   0.000952 -24.169800   5.005990 -10.994200 -20.172100  -0.001608  -0.001300 -14.120400  -0.008297  -0.001281 -46.899300  -3.552090   3.317080 -54.419300  -0.002975   0.003003 -39.143900  -0.001773  -0.001300 -25.621000  -2.107510   4.380950 -25.701700  -0.003829   0.003233 -17.117300   0.006928  -0.007798 -26.321100  -6.260250  12.426700 -40.509400  -0.006224   0.000796 -26.979300  -0.005165  -0.001438  10.360600  -4.382220  10.445800  45.605500  14.618100  45.689100  -7.959480 -23.534600  81.466500  15.283700 -34.132600  29.740600 -22.882100  17.257000  56.714200  59.454900   0.004605  -0.007703  32.937000   0.002338   0.007894  88.996200   4.999360   0.086888  83.903200   0.000000  -0.000557  62.927400  -0.002745  -0.003545  89.000000   0.000000   0.000485  91.601800  -0.004565  -0.001011  68.701400  -0.002045  -0.003717  88.995900  -4.999350  -0.091949 110.000000  -0.000230   0.000708  80.000000   0.000000   0.000142  88.984600  -9.996660  -0.176275 110.000000  -0.002178  -0.002283  80.000000  -0.001907   0.003815   1.751030  12.864200   9.094250   0.528200  18.787800   3.461540  -4.952890 -12.425600   2.940760  -0.000000   0.000000   0.000000  -4.561730  11.043500 -14.555000  -0.255912  26.648300 -10.340300  -5.265670  -7.396470   3.808380   0.000000   0.000000  -0.000000
